<svg version="1.1" id="Layer_1" xmlns="http://www.w3.org/2000/svg" xmlns:xlink="http://www.w3.org/1999/xlink" x="0px" y="0px"
	 width="100%" viewBox="0 0 376 380" enable-background="new 0 0 376 380" xml:space="preserve">
<path fill="#000000" opacity="1.000000" stroke="none" 
	d="
M377.000000,140.000000 
	C377.000000,220.666656 377.000000,300.833313 377.000000,381.000000 
	C251.666702,381.000000 126.333405,381.000000 1.000083,381.000000 
	C1.000055,254.333389 1.000055,127.666786 1.000028,1.000134 
	C126.333252,1.000089 251.666504,1.000089 376.999878,1.000045 
	C377.000000,47.166668 377.000000,93.333336 377.000000,140.000000 
M239.009781,31.993380 
	C239.009781,31.993380 239.064651,31.958101 238.863693,31.563370 
	C238.565018,31.707371 238.266327,31.851372 237.517609,32.002529 
	C237.517609,32.002529 237.074783,31.922064 236.729691,31.246147 
	C226.471603,29.216702 216.213516,27.187256 205.307114,25.074257 
	C204.872055,25.050575 204.436981,25.026894 203.847214,24.599855 
	C203.563583,24.733999 203.279968,24.868141 202.150757,25.047239 
	C200.459915,25.000349 198.769073,24.953461 196.542328,24.225426 
	C181.479187,23.583271 166.628540,24.265972 151.770874,27.716621 
	C130.107330,32.747917 109.820763,40.975494 91.959328,53.899334 
	C80.361328,62.291199 70.567635,73.176720 59.719143,83.585152 
	C55.847244,88.813164 51.715282,93.873077 48.190842,99.325676 
	C45.654671,103.249344 43.928699,107.696709 41.920258,111.953156 
	C41.920258,111.953156 41.899700,111.865807 41.298286,112.043968 
	C40.806812,113.340164 40.315334,114.636360 39.910786,115.955872 
	C39.910786,115.955872 39.922920,115.866699 39.170700,115.902382 
	C35.903637,123.899315 32.280434,131.772797 29.455408,139.922943 
	C25.504780,151.320419 22.916334,163.140167 22.881922,175.230713 
	C22.841463,189.447083 22.563440,203.791687 24.306488,217.842758 
	C25.661732,228.767639 28.880363,239.788513 33.220852,249.932312 
	C38.531319,262.342987 44.887405,274.577209 52.623520,285.602112 
	C60.226036,296.436584 69.459320,306.381927 79.218987,315.368622 
	C87.364594,322.869080 97.250023,328.502350 106.501762,334.760223 
	C108.330978,335.997498 110.783157,336.313751 112.997314,337.000977 
	C112.997314,337.000977 112.952080,337.054504 113.269806,337.675659 
	C119.071800,340.212036 124.733444,343.164124 130.710449,345.182129 
	C138.621674,347.853210 146.779602,349.793518 155.225815,352.685181 
	C156.457382,352.817230 157.688965,352.949310 159.385742,353.745392 
	C164.580673,354.104950 169.775620,354.464478 175.845169,354.960571 
	C186.294922,354.987000 196.748611,355.184967 207.192307,354.946320 
	C210.824280,354.863342 214.431564,353.700317 218.003052,352.996277 
	C218.003052,352.996277 217.990845,353.053192 218.742203,352.990814 
	C219.875458,352.669495 221.008713,352.348175 222.953018,352.003906 
	C241.990112,348.340332 259.523834,340.786133 275.884796,330.648865 
	C295.476379,318.509979 311.672852,302.867584 325.003326,283.833313 
	C337.841522,265.501953 346.194397,245.620102 350.923676,223.113419 
	C351.624542,217.805710 352.325439,212.497986 353.732208,206.659149 
	C353.772705,196.790909 353.813232,186.922668 353.953003,176.191086 
	C353.963043,175.527328 354.060760,174.851379 353.970337,174.201599 
	C351.548676,156.796051 347.950348,139.653885 340.668121,123.574638 
	C337.719604,117.064232 333.612366,111.078583 329.961975,104.466103 
	C329.961975,104.466103 329.876617,104.081062 330.009888,103.350151 
	C326.350861,98.547783 322.691803,93.745422 319.007660,89.000618 
	C319.007660,89.000618 319.063477,88.971840 318.972473,88.327812 
	C318.339417,87.522858 317.706360,86.717911 317.013672,85.950775 
	C317.013672,85.950775 317.080627,85.973167 316.908905,85.466011 
	C316.612274,85.285484 316.315613,85.104950 316.025421,84.991997 
	C316.025421,84.991997 316.080933,84.952904 315.995178,84.262718 
	C313.678101,81.820648 311.361053,79.378571 309.002869,76.986977 
	C309.002869,76.986977 309.067780,76.982132 308.890503,76.482620 
	C308.599243,76.297989 308.307983,76.113358 308.006531,75.993233 
	C308.006531,75.993233 308.070892,75.982124 307.888245,75.484856 
	C307.597229,75.299774 307.306183,75.114700 307.015381,74.995064 
	C307.015381,74.995064 307.072235,74.962677 306.987762,74.266609 
	C302.017303,69.812881 297.046875,65.359154 292.017487,60.955654 
	C292.017487,60.955654 292.094543,60.963184 291.931976,60.448166 
	C291.614655,60.347797 291.297302,60.247429 290.511505,60.078762 
	C290.511505,60.078762 290.046936,59.987637 289.965546,59.286324 
	C287.992584,57.831764 286.019592,56.377201 284.004242,54.976608 
	C284.004242,54.976608 284.072784,54.973034 283.914429,54.464577 
	C283.601532,54.362240 283.288605,54.259903 282.516418,54.075069 
	C282.516418,54.075069 282.057373,53.991337 281.794006,53.385731 
	C280.869598,52.890053 279.945190,52.394379 278.864685,51.481499 
	C278.693604,51.220184 278.457092,51.049541 277.946991,50.458935 
	C277.621460,50.353142 277.295959,50.247349 276.517273,50.068539 
	C276.517273,50.068539 276.064331,49.994064 275.811707,49.393852 
	C274.884338,48.906559 273.957001,48.419270 272.999146,47.988892 
	C272.999146,47.988892 273.059784,47.966698 272.817108,47.367054 
	C271.899109,46.876900 270.981110,46.386745 270.016510,45.951572 
	C270.016510,45.951572 270.087250,45.965363 269.934753,45.429882 
	C269.607056,45.323795 269.279358,45.217705 268.547180,45.037693 
	C268.547180,45.037693 268.142029,44.967396 267.795105,44.349712 
	C264.848419,42.954697 261.901764,41.559681 258.547058,40.058464 
	C258.547058,40.058464 258.135529,39.967041 257.830658,39.305344 
	C252.228699,37.272217 246.626755,35.239086 240.572906,33.075287 
	C240.572906,33.075287 240.112915,32.976967 239.923935,32.466869 
	C239.620514,32.287338 239.317093,32.107811 239.009781,31.993380 
z"/>
<path fill="#324D96" opacity="1.000000" stroke="none" 
	d="
M268.142029,44.967396 
	C268.142029,44.967396 268.547180,45.037693 268.912109,45.250954 
	C269.514374,45.684147 269.784454,45.851200 270.087250,45.965363 
	C270.087250,45.965363 270.016510,45.951572 270.114197,46.258339 
	C271.161194,47.032303 272.110504,47.499500 273.059784,47.966698 
	C273.059784,47.966698 272.999146,47.988892 273.100281,48.291069 
	C274.155731,49.060184 275.110046,49.527122 276.064331,49.994064 
	C276.064331,49.994064 276.517273,50.068539 276.913818,50.280548 
	C277.558105,50.711540 277.839722,50.870541 278.155182,50.969570 
	C278.457092,51.049541 278.693604,51.220184 279.029144,52.022621 
	C280.148193,53.039608 281.102783,53.515472 282.057373,53.991333 
	C282.057373,53.991337 282.516418,54.075069 282.902832,54.285797 
	C283.518005,54.708595 283.779205,54.867432 284.072784,54.973034 
	C284.072784,54.973034 284.004242,54.976608 284.070709,55.297535 
	C286.107086,57.074852 288.077026,58.531246 290.046936,59.987640 
	C290.046936,59.987637 290.511505,60.078762 290.905884,60.282238 
	C291.533997,60.696472 291.798767,60.855629 292.094543,60.963184 
	C292.094543,60.963184 292.017487,60.955654 292.045563,61.291008 
	C297.073181,66.071800 302.072693,70.517235 307.072235,74.962677 
	C307.072235,74.962677 307.015381,74.995064 307.150024,75.176331 
	C307.546783,75.565773 307.808838,75.773941 308.070892,75.982117 
	C308.070892,75.982124 308.006531,75.993233 308.145294,76.175217 
	C308.545288,76.565506 308.806549,76.773819 309.067780,76.982132 
	C309.067780,76.982132 309.002869,76.986977 309.023315,77.328369 
	C311.389465,80.097466 313.735199,82.525185 316.080933,84.952904 
	C316.080933,84.952904 316.025421,84.991997 316.158142,85.171738 
	C316.554108,85.558708 316.817352,85.765938 317.080627,85.973167 
	C317.080627,85.973167 317.013672,85.950775 317.039734,86.280724 
	C317.731720,87.397728 318.397583,88.184784 319.063477,88.971840 
	C319.063477,88.971840 319.007660,89.000618 319.024719,89.340469 
	C322.653412,94.480576 326.265015,99.280823 329.876617,104.081062 
	C329.876617,104.081062 329.961975,104.466103 329.991058,105.058456 
	C331.190613,108.525352 332.115387,111.531639 333.573944,114.251709 
	C340.029205,126.290306 344.868042,138.843826 347.199036,152.382904 
	C348.795715,161.657135 351.000488,170.826675 352.945190,180.361969 
	C352.956116,181.106888 352.955261,181.532867 352.724243,182.305573 
	C352.333771,183.452057 352.084961,184.245422 352.026764,185.052536 
	C351.330994,194.700729 350.823212,204.366653 349.876740,213.989639 
	C349.639557,216.400925 348.016449,218.675888 346.740540,220.844269 
	C335.687469,210.298721 324.836975,200.010971 314.182220,189.524338 
	C299.965668,175.532135 285.913727,161.372818 271.745422,147.331345 
	C270.720490,146.315567 269.324402,145.674316 267.850616,144.697327 
	C267.207947,144.482010 266.815552,144.428314 266.478821,144.277954 
	C266.534485,144.181274 266.725769,144.296097 266.732635,143.956848 
	C266.354004,143.096313 265.968506,142.575027 265.728088,142.075134 
	C265.873138,142.096512 265.819580,142.384827 265.699097,142.120850 
	C265.305359,141.589905 265.032074,141.322906 264.549805,140.987671 
	C264.089813,140.724655 263.966125,140.468430 263.803864,139.929886 
	C263.342834,139.489227 263.047607,139.269455 262.831604,139.071289 
	C262.910828,139.092896 262.859589,139.248947 262.810608,138.902176 
	C261.173187,137.710007 259.584747,136.864609 257.527924,136.014236 
	C248.046799,136.000778 239.034073,135.992294 229.854279,135.696075 
	C226.462494,132.255768 223.237793,129.103165 219.992630,125.611366 
	C219.287308,124.509300 218.602417,123.746445 217.850815,122.889664 
	C217.784088,122.795738 217.964874,122.652840 217.813873,122.346626 
	C217.371979,121.691956 217.081085,121.343506 216.863312,121.029190 
	C216.936432,121.063324 216.863174,121.207115 216.874542,120.836502 
	C215.916290,119.653404 214.946671,118.840927 213.509888,118.020706 
	C197.854416,118.007622 182.665741,117.952026 167.478287,118.063202 
	C165.664139,118.076485 163.856628,118.997650 162.090347,119.384323 
	C162.134644,119.270638 162.353729,119.378120 161.964645,119.302139 
	C160.385223,120.483566 159.194901,121.740990 158.008072,123.250137 
	C158.024185,123.669235 158.036774,123.836594 157.876404,124.378418 
	C157.455612,128.488922 157.207779,132.224960 156.493835,135.966827 
	C144.917236,135.980301 133.806274,135.938126 122.696724,136.043427 
	C120.790207,136.061508 118.889641,136.707962 116.693741,137.114441 
	C115.971558,137.545364 115.541962,137.925995 115.104721,138.209854 
	C115.097061,138.113098 115.291092,138.107895 115.040726,138.246216 
	C114.543190,138.671585 114.296021,138.958618 114.045013,139.145493 
	C114.041183,139.045319 114.241638,139.041824 114.003494,139.194275 
	C113.525131,139.633179 113.284920,139.919617 112.978600,140.487259 
	C112.346031,141.530075 111.779579,142.291672 110.827789,143.167786 
	C109.958015,144.598007 109.053421,145.912750 109.050453,147.229538 
	C108.972450,181.816391 108.954430,216.403564 109.093567,250.990021 
	C109.099976,252.583282 110.660347,254.170288 111.386108,255.779358 
	C111.275238,255.798508 111.259308,255.574051 111.323669,255.842102 
	C111.601852,256.401550 111.815681,256.692932 112.208519,257.179504 
	C112.983192,257.718994 113.578850,258.063293 114.294296,258.725647 
	C115.552383,259.682037 116.690681,260.320374 118.025139,261.187073 
	C118.762779,261.657654 119.304260,261.899841 119.932831,262.471436 
	C120.581566,263.613342 121.030159,264.540588 121.721375,265.221497 
	C138.165894,281.420746 154.702225,297.527283 171.081161,313.792419 
	C183.808426,326.431274 196.345337,339.261841 208.588928,352.174286 
	C198.531021,352.827606 188.850998,353.313019 179.171112,353.800842 
	C177.771088,353.871399 176.371643,353.953064 174.650208,354.018005 
	C173.899002,354.003326 173.469513,354.000153 172.764023,353.777588 
	C170.315247,353.378693 168.142441,353.199188 165.563690,353.009583 
	C163.804611,352.972382 162.451477,352.945251 161.014587,352.671448 
	C160.276901,352.283875 159.623001,352.142914 158.646027,351.995850 
	C157.892761,351.984711 157.462570,351.979706 156.897095,351.636810 
	C155.921356,350.864624 155.124313,350.285522 154.233704,350.018585 
	C146.036774,347.561890 137.796646,345.246277 129.624588,342.710724 
	C124.021477,340.972321 118.506470,338.949951 112.952080,337.054504 
	C112.952080,337.054504 112.997314,337.000977 112.912857,336.680023 
	C112.345146,335.714020 111.994545,334.859009 111.357895,334.456787 
	C105.621330,330.832336 99.640572,327.563232 94.099304,323.666779 
	C78.085068,312.405914 64.227455,298.961853 53.086224,282.738068 
	C41.398827,265.718933 33.111629,247.193146 28.314238,227.193024 
	C24.142056,209.799362 22.896784,192.192184 24.764738,174.242538 
	C26.151447,160.917267 28.637608,148.003799 33.191952,135.438187 
	C35.542450,128.953079 37.685909,122.392937 39.922920,115.866699 
	C39.922920,115.866699 39.910786,115.955872 40.222843,115.855255 
	C40.989834,114.458359 41.444767,113.162086 41.899700,111.865807 
	C41.899700,111.865807 41.920258,111.953156 42.225800,111.873100 
	C43.214184,111.114304 44.027374,110.524414 44.559868,109.743187 
	C50.397469,101.178871 56.191284,92.584702 62.320656,83.909470 
	C69.467316,77.148979 76.185585,70.366196 83.138802,63.833469 
	C92.644791,54.902344 103.910553,48.748737 115.444092,42.751842 
	C127.806091,36.324184 140.711472,31.600418 154.197021,29.168785 
	C166.212418,27.002247 178.613892,26.991440 190.839264,25.961168 
	C192.933670,25.784666 194.999298,25.266762 197.078232,24.906570 
	C198.769073,24.953461 200.459915,25.000349 202.824966,25.027283 
	C203.666763,25.005957 203.834335,25.004583 204.001923,25.003212 
	C204.436981,25.026894 204.872055,25.050575 205.790100,25.447723 
	C206.645065,26.132154 206.976120,26.637215 207.395050,26.725563 
	C216.683533,28.684452 225.978622,30.612720 235.286026,32.479191 
	C235.823425,32.586960 236.475876,32.121010 237.074783,31.922062 
	C237.074783,31.922064 237.517609,32.002529 238.017120,31.994879 
	C238.699310,31.977520 238.881989,31.967812 239.064651,31.958101 
	C239.064651,31.958101 239.009781,31.993380 239.153488,32.176243 
	C239.569107,32.565060 239.841003,32.771011 240.112915,32.976967 
	C240.112915,32.976967 240.572906,33.075287 241.003571,33.408798 
	C247.001328,35.817219 252.568436,37.892132 258.135529,39.967041 
	C258.135529,39.967041 258.547058,40.058464 258.864807,40.427498 
	C262.169037,42.186821 265.155518,43.577110 268.142029,44.967396 
z"/>
<path fill="#48567B" opacity="1.000000" stroke="none" 
	d="
M39.546806,115.884537 
	C37.685909,122.392937 35.542450,128.953079 33.191952,135.438187 
	C28.637608,148.003799 26.151447,160.917267 24.764738,174.242538 
	C22.896784,192.192184 24.142056,209.799362 28.314238,227.193024 
	C33.111629,247.193146 41.398827,265.718933 53.086224,282.738068 
	C64.227455,298.961853 78.085068,312.405914 94.099304,323.666779 
	C99.640572,327.563232 105.621330,330.832336 111.357895,334.456787 
	C111.994545,334.859009 112.345146,335.714020 112.888229,336.706909 
	C110.783157,336.313751 108.330978,335.997498 106.501762,334.760223 
	C97.250023,328.502350 87.364594,322.869080 79.218987,315.368622 
	C69.459320,306.381927 60.226036,296.436584 52.623520,285.602112 
	C44.887405,274.577209 38.531319,262.342987 33.220852,249.932312 
	C28.880363,239.788513 25.661732,228.767639 24.306488,217.842758 
	C22.563440,203.791687 22.841463,189.447083 22.881922,175.230713 
	C22.916334,163.140167 25.504780,151.320419 29.455408,139.922943 
	C32.280434,131.772797 35.903637,123.899315 39.546806,115.884537 
z"/>
<path fill="#313D61" opacity="1.000000" stroke="none" 
	d="
M350.795227,223.932739 
	C346.194397,245.620102 337.841522,265.501953 325.003326,283.833313 
	C311.672852,302.867584 295.476379,318.509979 275.884796,330.648865 
	C259.523834,340.786133 241.990112,348.340332 222.174866,352.004486 
	C220.261429,352.354462 219.126144,352.703827 217.990845,353.053192 
	C217.990845,353.053192 218.003052,352.996277 217.596558,352.996796 
	C214.778320,352.681824 212.366592,352.366333 210.362137,352.030762 
	C214.631210,351.231079 218.531784,350.603607 222.344696,349.632141 
	C226.809708,348.494537 231.264587,347.243896 235.603607,345.703522 
	C241.166901,343.728577 246.696136,341.608276 252.085052,339.203247 
	C259.883972,335.722656 267.926270,332.557831 275.180298,328.135559 
	C288.553619,319.982788 300.284058,309.782837 310.739532,297.965546 
	C320.954803,286.419708 329.646027,273.917328 335.689331,259.871826 
	C340.364197,249.006744 343.416962,237.445618 347.265900,226.219650 
	C347.562714,225.354080 348.454193,224.692398 349.356964,223.935272 
	C350.028198,223.933990 350.411713,223.933365 350.795227,223.932739 
z"/>
<path fill="#3E5185" opacity="1.000000" stroke="none" 
	d="
M196.810272,24.565998 
	C194.999298,25.266762 192.933670,25.784666 190.839264,25.961168 
	C178.613892,26.991440 166.212418,27.002247 154.197021,29.168785 
	C140.711472,31.600418 127.806091,36.324184 115.444092,42.751842 
	C103.910553,48.748737 92.644791,54.902344 83.138802,63.833469 
	C76.185585,70.366196 69.467316,77.148979 62.115803,83.699585 
	C61.046700,83.367561 60.506115,83.156273 59.965530,82.944977 
	C70.567635,73.176720 80.361328,62.291199 91.959328,53.899334 
	C109.820763,40.975494 130.107330,32.747917 151.770874,27.716621 
	C166.628540,24.265972 181.479187,23.583271 196.810272,24.565998 
z"/>
<path fill="#3E5185" opacity="1.000000" stroke="none" 
	d="
M352.933411,180.043030 
	C351.000488,170.826675 348.795715,161.657135 347.199036,152.382904 
	C344.868042,138.843826 340.029205,126.290306 333.573944,114.251709 
	C332.115387,111.531639 331.190613,108.525352 330.026245,105.252480 
	C333.612366,111.078583 337.719604,117.064232 340.668121,123.574638 
	C347.950348,139.653885 351.548676,156.796051 353.970337,174.201599 
	C354.060760,174.851379 353.963043,175.527328 353.701660,176.870087 
	C353.278015,178.380417 353.105713,179.211731 352.933411,180.043030 
z"/>
<path fill="#48567B" opacity="1.000000" stroke="none" 
	d="
M113.110947,337.365082 
	C118.506470,338.949951 124.021477,340.972321 129.624588,342.710724 
	C137.796646,345.246277 146.036774,347.561890 154.233704,350.018585 
	C155.124313,350.285522 155.921356,350.864624 156.529572,351.645660 
	C155.808731,352.010895 155.320114,352.029419 154.831497,352.047913 
	C146.779602,349.793518 138.621674,347.853210 130.710449,345.182129 
	C124.733444,343.164124 119.071800,340.212036 113.110947,337.365082 
z"/>
<path fill="#48567B" opacity="1.000000" stroke="none" 
	d="
M209.954865,352.050842 
	C212.366592,352.366333 214.778320,352.681824 217.620087,353.013916 
	C214.431564,353.700317 210.824280,354.863342 207.192307,354.946320 
	C196.748611,355.184967 186.294922,354.987000 175.409454,354.693665 
	C174.973724,354.426788 174.971924,354.029572 174.971924,354.029572 
	C176.371643,353.953064 177.771088,353.871399 179.171112,353.800842 
	C188.850998,353.313019 198.531021,352.827606 208.836151,352.183960 
	C209.461319,352.026581 209.954865,352.050842 209.954865,352.050842 
z"/>
<path fill="#48567B" opacity="1.000000" stroke="none" 
	d="
M59.842339,83.265060 
	C60.506115,83.156273 61.046700,83.367561 61.792137,83.788750 
	C56.191284,92.584702 50.397469,101.178871 44.559868,109.743187 
	C44.027374,110.524414 43.214184,111.114304 42.186333,111.851761 
	C43.928699,107.696709 45.654671,103.249344 48.190842,99.325676 
	C51.715282,93.873077 55.847244,88.813164 59.842339,83.265060 
z"/>
<path fill="#3E5185" opacity="1.000000" stroke="none" 
	d="
M350.859436,223.523071 
	C350.411713,223.933365 350.028198,223.933990 349.198608,223.683380 
	C348.178467,222.625931 347.604370,221.819717 347.030304,221.013489 
	C348.016449,218.675888 349.639557,216.400925 349.876740,213.989639 
	C350.823212,204.366653 351.330994,194.700729 352.026764,185.052536 
	C352.084961,184.245422 352.333771,183.452057 352.743622,182.778534 
	C353.004242,190.999939 353.015289,199.095108 353.026337,207.190277 
	C352.325439,212.497986 351.624542,217.805710 350.859436,223.523071 
z"/>
<path fill="#3E5185" opacity="1.000000" stroke="none" 
	d="
M236.902237,31.584103 
	C236.475876,32.121010 235.823425,32.586960 235.286026,32.479191 
	C225.978622,30.612720 216.683533,28.684452 207.395050,26.725563 
	C206.976120,26.637215 206.645065,26.132154 206.114258,25.489498 
	C216.213516,27.187256 226.471603,29.216702 236.902237,31.584103 
z"/>
<path fill="#3E5185" opacity="1.000000" stroke="none" 
	d="
M307.029999,74.614639 
	C302.072693,70.517235 297.073181,66.071800 292.075012,61.265896 
	C297.046875,65.359154 302.017303,69.812881 307.029999,74.614639 
z"/>
<path fill="#576485" opacity="1.000000" stroke="none" 
	d="
M353.379272,206.924713 
	C353.015289,199.095108 353.004242,190.999939 352.973816,182.431808 
	C352.955261,181.532867 352.956116,181.106888 352.945190,180.361969 
	C353.105713,179.211731 353.278015,178.380417 353.652039,177.301758 
	C353.813232,186.922668 353.772705,196.790909 353.379272,206.924713 
z"/>
<path fill="#3E5185" opacity="1.000000" stroke="none" 
	d="
M329.943237,103.715607 
	C326.265015,99.280823 322.653412,94.480576 319.037292,89.311691 
	C322.691803,93.745422 326.350861,98.547783 329.943237,103.715607 
z"/>
<path fill="#3E5185" opacity="1.000000" stroke="none" 
	d="
M257.983093,39.636192 
	C252.568436,37.892132 247.001328,35.817219 241.229523,33.474133 
	C246.626755,35.239086 252.228699,37.272217 257.983093,39.636192 
z"/>
<path fill="#3E5185" opacity="1.000000" stroke="none" 
	d="
M316.038055,84.607811 
	C313.735199,82.525185 311.389465,80.097466 309.043854,77.303131 
	C311.361053,79.378571 313.678101,81.820648 316.038055,84.607811 
z"/>
<path fill="#586386" opacity="1.000000" stroke="none" 
	d="
M174.650208,354.018005 
	C174.971924,354.029572 174.973724,354.426788 174.972137,354.625397 
	C169.775620,354.464478 164.580673,354.104950 159.180161,353.385559 
	C158.974579,353.025726 159.028381,352.970245 159.372955,352.966370 
	C160.177811,352.947693 160.638077,352.932922 161.098358,352.918121 
	C162.451477,352.945251 163.804611,352.972382 165.885773,353.232788 
	C168.755875,353.643036 170.897934,353.820007 173.040009,353.997009 
	C173.469513,354.000153 173.899002,354.003326 174.650208,354.018005 
z"/>
<path fill="#3E5185" opacity="1.000000" stroke="none" 
	d="
M267.968567,44.658554 
	C265.155518,43.577110 262.169037,42.186821 259.068787,40.480598 
	C261.901764,41.559681 264.848419,42.954697 267.968567,44.658554 
z"/>
<path fill="#3E5185" opacity="1.000000" stroke="none" 
	d="
M290.006226,59.636982 
	C288.077026,58.531246 286.107086,57.074852 284.091919,55.270550 
	C286.019592,56.377201 287.992584,57.831764 290.006226,59.636982 
z"/>
<path fill="#48567B" opacity="1.000000" stroke="none" 
	d="
M41.598991,111.954887 
	C41.444767,113.162086 40.989834,114.458359 40.179382,115.843597 
	C40.315334,114.636360 40.806812,113.340164 41.598991,111.954887 
z"/>
<path fill="#3E5185" opacity="1.000000" stroke="none" 
	d="
M319.017975,88.649826 
	C318.397583,88.184784 317.731720,87.397728 317.069580,86.261818 
	C317.706360,86.717911 318.339417,87.522858 319.017975,88.649826 
z"/>
<path fill="#3E5185" opacity="1.000000" stroke="none" 
	d="
M272.938446,47.666878 
	C272.110504,47.499500 271.161194,47.032303 270.137512,46.230850 
	C270.981110,46.386745 271.899109,46.876900 272.938446,47.666878 
z"/>
<path fill="#3E5185" opacity="1.000000" stroke="none" 
	d="
M275.938019,49.693958 
	C275.110046,49.527122 274.155731,49.060184 273.115540,48.262611 
	C273.957001,48.419270 274.884338,48.906559 275.938019,49.693958 
z"/>
<path fill="#3E5185" opacity="1.000000" stroke="none" 
	d="
M281.925690,53.688530 
	C281.102783,53.515472 280.148193,53.039608 279.107178,52.231224 
	C279.945190,52.394379 280.869598,52.890053 281.925690,53.688530 
z"/>
<path fill="#48567B" opacity="1.000000" stroke="none" 
	d="
M218.366516,353.022003 
	C219.126144,352.703827 220.261429,352.354462 221.769348,352.015961 
	C221.008713,352.348175 219.875458,352.669495 218.366516,353.022003 
z"/>
<path fill="#586386" opacity="1.000000" stroke="none" 
	d="
M155.028656,352.366577 
	C155.320114,352.029419 155.808731,352.010895 156.664871,351.983551 
	C157.462570,351.979706 157.892761,351.984711 158.662567,352.237793 
	C159.002197,352.485901 159.028381,352.970245 159.028381,352.970245 
	C159.028381,352.970245 158.974579,353.025726 158.947556,353.053558 
	C157.688965,352.949310 156.457382,352.817230 155.028656,352.366577 
z"/>
<path fill="#3E5185" opacity="1.000000" stroke="none" 
	d="
M316.994751,85.719589 
	C316.817352,85.765938 316.554108,85.558708 316.154907,85.137955 
	C316.315613,85.104950 316.612274,85.285484 316.994751,85.719589 
z"/>
<path fill="#3E5185" opacity="1.000000" stroke="none" 
	d="
M203.924561,24.801533 
	C203.834335,25.004583 203.666763,25.005957 203.247757,25.004807 
	C203.279968,24.868141 203.563583,24.733999 203.924561,24.801533 
z"/>
<path fill="#3E5185" opacity="1.000000" stroke="none" 
	d="
M308.979126,76.732376 
	C308.806549,76.773819 308.545288,76.565506 308.150391,76.142960 
	C308.307983,76.113358 308.599243,76.297989 308.979126,76.732376 
z"/>
<path fill="#3E5185" opacity="1.000000" stroke="none" 
	d="
M307.979553,75.733490 
	C307.808838,75.773941 307.546783,75.565773 307.149933,75.143608 
	C307.306183,75.114700 307.597229,75.299774 307.979553,75.733490 
z"/>
<path fill="#3E5185" opacity="1.000000" stroke="none" 
	d="
M238.964172,31.760735 
	C238.881989,31.967812 238.699310,31.977520 238.242157,31.991301 
	C238.266327,31.851372 238.565018,31.707371 238.964172,31.760735 
z"/>
<path fill="#3E5185" opacity="1.000000" stroke="none" 
	d="
M240.018433,32.721916 
	C239.841003,32.771011 239.569107,32.565060 239.155426,32.143692 
	C239.317093,32.107811 239.620514,32.287338 240.018433,32.721916 
z"/>
<path fill="#3E5185" opacity="1.000000" stroke="none" 
	d="
M283.993591,54.718803 
	C283.779205,54.867432 283.518005,54.708595 283.132446,54.327042 
	C283.288605,54.259903 283.601532,54.362240 283.993591,54.718803 
z"/>
<path fill="#3E5185" opacity="1.000000" stroke="none" 
	d="
M292.013245,60.705673 
	C291.798767,60.855629 291.533997,60.696472 291.140106,60.316383 
	C291.297302,60.247429 291.614655,60.347797 292.013245,60.705673 
z"/>
<path fill="#3E5185" opacity="1.000000" stroke="none" 
	d="
M270.010986,45.697624 
	C269.784454,45.851200 269.514374,45.684147 269.114319,45.287914 
	C269.279358,45.217705 269.607056,45.323795 270.010986,45.697624 
z"/>
<path fill="#3E5185" opacity="1.000000" stroke="none" 
	d="
M278.051086,50.714252 
	C277.839722,50.870541 277.558105,50.711540 277.140381,50.317055 
	C277.295959,50.247349 277.621460,50.353142 278.051086,50.714252 
z"/>
<path fill="#243871" opacity="1.000000" stroke="none" 
	d="
M346.740540,220.844269 
	C347.604370,221.819717 348.178467,222.625931 348.910889,223.684052 
	C348.454193,224.692398 347.562714,225.354080 347.265900,226.219650 
	C343.416962,237.445618 340.364197,249.006744 335.689331,259.871826 
	C329.646027,273.917328 320.954803,286.419708 310.739532,297.965546 
	C300.284058,309.782837 288.553619,319.982788 275.180298,328.135559 
	C267.926270,332.557831 259.883972,335.722656 252.085052,339.203247 
	C246.696136,341.608276 241.166901,343.728577 235.603607,345.703522 
	C231.264587,347.243896 226.809708,348.494537 222.344696,349.632141 
	C218.531784,350.603607 214.631210,351.231079 210.362137,352.030762 
	C209.954865,352.050842 209.461319,352.026581 209.214081,352.016907 
	C196.345337,339.261841 183.808426,326.431274 171.081161,313.792419 
	C154.702225,297.527283 138.165894,281.420746 121.721375,265.221497 
	C121.030159,264.540588 120.581566,263.613342 120.416328,262.427399 
	C165.175644,262.036591 209.538651,262.044830 253.901260,261.920074 
	C255.939835,261.914337 257.975067,260.713684 260.267822,259.851074 
	C262.548065,257.399414 264.572388,255.166229 266.905212,252.647339 
	C267.477570,250.429260 267.969147,248.497177 267.971405,246.564484 
	C268.011230,212.714798 267.991180,178.865036 268.014038,144.976746 
	C268.043945,144.938202 268.100861,144.858932 268.100861,144.858932 
	C269.324402,145.674316 270.720490,146.315567 271.745422,147.331345 
	C285.913727,161.372818 299.965668,175.532135 314.182220,189.524338 
	C324.836975,200.010971 335.687469,210.298721 346.740540,220.844269 
z"/>
<path fill="#F6F8FB" opacity="1.000000" stroke="none" 
	d="
M266.596741,252.933044 
	C264.572388,255.166229 262.548065,257.399414 259.797668,259.833923 
	C256.746552,260.068329 254.421585,260.128204 252.096573,260.130524 
	C207.742203,260.175232 163.387833,260.213226 118.689178,260.113403 
	C116.954758,259.451996 115.564629,258.929779 114.174507,258.407562 
	C113.578850,258.063293 112.983192,257.718994 112.241463,256.882019 
	C111.816696,256.117554 111.538002,255.845810 111.259308,255.574051 
	C111.259308,255.574051 111.275238,255.798508 111.280579,255.377594 
	C110.892395,252.186813 110.163773,249.417816 110.156616,246.646942 
	C110.075485,215.228210 110.073708,183.809128 110.152885,152.390381 
	C110.160728,149.277130 110.843567,146.165604 111.213127,143.053268 
	C111.779579,142.291672 112.346031,141.530075 113.252373,140.378281 
	C113.808723,139.672668 114.025185,139.357254 114.241638,139.041824 
	C114.241638,139.041824 114.041183,139.045319 114.331352,139.057159 
	C114.844711,138.748627 115.067902,138.428253 115.291092,138.107895 
	C115.291092,138.107895 115.097061,138.113098 115.428314,138.180298 
	C116.164154,138.115601 116.568741,137.983704 117.442291,137.889191 
	C130.621857,137.833740 143.332474,137.740921 156.388336,137.741760 
	C157.352997,136.915283 157.972412,135.995163 158.690216,134.621368 
	C158.756226,130.777023 158.723877,127.386337 158.806396,123.761848 
	C158.910248,123.354614 158.899231,123.181190 159.090515,122.761505 
	C160.313126,121.469528 161.333420,120.423828 162.353729,119.378120 
	C162.353729,119.378120 162.134644,119.270638 162.563293,119.404510 
	C179.954147,119.528870 196.916367,119.519348 214.105453,119.686859 
	C215.175949,120.311630 216.019562,120.759369 216.863174,121.207108 
	C216.863174,121.207115 216.936432,121.063324 216.953552,121.375351 
	C217.302078,122.009201 217.633484,122.331017 217.964874,122.652840 
	C217.964874,122.652840 217.784088,122.795738 217.851303,123.358124 
	C217.918518,128.463623 217.918518,133.006744 217.918518,137.667847 
	C223.452408,137.667847 228.189682,137.667847 233.393616,137.750305 
	C241.904037,137.773972 249.947784,137.715179 258.337463,137.780548 
	C260.075500,138.352768 261.467529,138.800858 262.859589,139.248947 
	C262.859589,139.248947 262.910828,139.092896 262.936462,139.345886 
	C263.297974,139.782837 263.633820,139.966797 263.969666,140.150757 
	C263.966125,140.468430 264.089813,140.724655 264.633423,141.277588 
	C265.223907,141.885452 265.521759,142.135132 265.819580,142.384827 
	C265.819580,142.384827 265.873138,142.096512 265.770691,142.407471 
	C266.020752,143.244324 266.373260,143.770218 266.725769,144.296097 
	C266.725769,144.296097 266.534485,144.181274 266.487793,144.477203 
	C266.441101,144.773117 266.785950,144.971161 266.753906,145.440689 
	C266.743713,153.875137 266.796021,161.840103 266.781860,169.804947 
	C266.732574,197.514343 266.660278,225.223679 266.596741,252.933044 
M250.054245,147.151321 
	C207.381149,147.187958 164.708038,147.224579 121.387939,147.053879 
	C120.889084,147.354309 120.390221,147.654739 119.702988,148.881836 
	C119.702988,157.326950 119.702988,165.772064 119.702988,174.467285 
	C165.651474,174.467285 211.135544,174.467285 256.975067,174.467285 
	C256.975067,165.512238 256.975067,156.761139 256.674072,147.254776 
	C254.777481,147.254959 252.880905,147.255157 250.054245,147.151321 
M192.110840,190.897278 
	C186.414001,190.579391 180.717163,190.261505 174.875259,189.497238 
	C174.714706,189.204758 174.472534,189.018250 174.042679,188.135590 
	C173.915909,184.988190 172.309982,184.146759 169.203415,184.185562 
	C155.042603,184.362518 140.878357,184.264313 126.715347,184.264954 
	C124.456810,184.265060 122.198265,184.264954 119.920059,184.264954 
	C119.920059,206.873749 119.920059,228.779999 119.920059,250.619141 
	C165.819061,250.619141 211.391891,250.619141 256.880707,250.619141 
	C256.880707,228.384903 256.880707,206.500977 256.880707,184.265793 
	C240.507355,184.265793 224.534195,184.396805 208.566132,184.169113 
	C204.807297,184.115509 202.956146,185.185272 202.396866,189.123627 
	C202.154465,189.334427 202.012222,189.599075 201.425323,190.068207 
	C200.948288,190.370056 200.471252,190.671906 199.124649,190.894913 
	C197.092712,190.965927 195.060791,191.036957 192.110840,190.897278 
M207.150406,129.344574 
	C194.554047,129.344574 181.957672,129.344574 169.175140,129.344574 
	C169.175140,132.285294 169.175140,134.813431 169.175140,137.364990 
	C182.294235,137.364990 195.057251,137.364990 208.439255,137.364990 
	C208.263168,134.683456 208.104416,132.266266 207.150406,129.344574 
z"/>
<path fill="#23315B" opacity="1.000000" stroke="none" 
	d="
M119.033463,260.252563 
	C163.387833,260.213226 207.742203,260.175232 252.096573,260.130524 
	C254.421585,260.128204 256.746552,260.068329 259.541687,260.052429 
	C257.975067,260.713684 255.939835,261.914337 253.901260,261.920074 
	C209.538651,262.044830 165.175644,262.036591 120.329239,262.097961 
	C119.304260,261.899841 118.762779,261.657654 118.258652,261.124451 
	C118.611763,260.728516 118.857582,260.534882 119.033463,260.252563 
z"/>
<path fill="#394C77" opacity="1.000000" stroke="none" 
	d="
M110.827789,143.167786 
	C110.843567,146.165604 110.160728,149.277130 110.152885,152.390381 
	C110.073708,183.809128 110.075485,215.228210 110.156616,246.646942 
	C110.163773,249.417816 110.892395,252.186813 111.391449,255.358444 
	C110.660347,254.170288 109.099976,252.583282 109.093567,250.990021 
	C108.954430,216.403564 108.972450,181.816391 109.050453,147.229538 
	C109.053421,145.912750 109.958015,144.598007 110.827789,143.167786 
z"/>
<path fill="#334782" opacity="1.000000" stroke="none" 
	d="
M156.043060,137.648087 
	C143.332474,137.740921 130.621857,137.833740 117.448639,137.692291 
	C116.986031,137.458008 116.986328,137.064148 116.986328,137.064148 
	C118.889641,136.707962 120.790207,136.061508 122.696724,136.043427 
	C133.806274,135.938126 144.917236,135.980301 156.505096,135.977692 
	C156.982468,135.982742 157.001190,136.001190 156.904236,136.219131 
	C156.552536,136.840744 156.297806,137.244415 156.043060,137.648087 
z"/>
<path fill="#253972" opacity="1.000000" stroke="none" 
	d="
M220.013077,125.950584 
	C223.237793,129.103165 226.462494,132.255768 229.821045,135.920044 
	C229.954880,136.431747 229.896561,136.880371 229.454208,136.904160 
	C228.192368,136.939178 227.372894,136.958817 226.553391,136.960358 
	C219.083817,136.974442 218.018173,135.727875 219.212708,128.266342 
	C219.339874,127.472069 219.739731,126.721451 220.013077,125.950584 
z"/>
<path fill="#314480" opacity="1.000000" stroke="none" 
	d="
M229.896561,136.880371 
	C229.896561,136.880371 229.954880,136.431747 229.988129,136.207764 
	C239.034073,135.992294 248.046799,136.000778 257.526703,136.286850 
	C257.993103,136.928421 257.992310,137.292419 257.991516,137.656403 
	C249.947784,137.715179 241.904037,137.773972 233.123047,137.589264 
	C231.556061,137.190628 230.726303,137.035507 229.896561,136.880371 
z"/>
<path fill="#2E3F75" opacity="1.000000" stroke="none" 
	d="
M213.878571,119.509834 
	C196.916367,119.519348 179.954147,119.528870 162.518997,119.518196 
	C163.856628,118.997650 165.664139,118.076485 167.478287,118.063202 
	C182.665741,117.952026 197.854416,118.007622 213.482391,118.390694 
	C213.907562,119.015572 213.893066,119.262703 213.878571,119.509834 
z"/>
<path fill="#334782" opacity="1.000000" stroke="none" 
	d="
M229.454208,136.904160 
	C230.726303,137.035507 231.556061,137.190628 232.656372,137.506805 
	C228.189682,137.667847 223.452408,137.667847 217.918518,137.667847 
	C217.918518,133.006744 217.918518,128.463623 217.918030,123.452057 
	C218.602417,123.746445 219.287308,124.509300 219.992630,125.611366 
	C219.739731,126.721451 219.339874,127.472069 219.212708,128.266342 
	C218.018173,135.727875 219.083817,136.974442 226.553391,136.960358 
	C227.372894,136.958817 228.192368,136.939178 229.454208,136.904160 
z"/>
<path fill="#334782" opacity="1.000000" stroke="none" 
	d="
M158.691528,123.995651 
	C158.723877,127.386337 158.756226,130.777023 158.496841,134.747284 
	C157.803787,135.551651 157.402496,135.776413 157.001190,136.001190 
	C157.001190,136.001190 156.982468,135.982742 156.971222,135.971863 
	C157.207779,132.224960 157.455612,128.488922 158.035980,124.376602 
	C158.368500,124.000328 158.691528,123.995651 158.691528,123.995651 
z"/>
<path fill="#48567B" opacity="1.000000" stroke="none" 
	d="
M172.764023,353.777588 
	C170.897934,353.820007 168.755875,353.643036 166.291718,353.242859 
	C168.142441,353.199188 170.315247,353.378693 172.764023,353.777588 
z"/>
<path fill="#334782" opacity="1.000000" stroke="none" 
	d="
M161.964645,119.302139 
	C161.333420,120.423828 160.313126,121.469528 158.869766,122.758286 
	C158.446716,123.001328 158.004562,122.998413 158.004562,122.998413 
	C159.194901,121.740990 160.385223,120.483566 161.964645,119.302139 
z"/>
<path fill="#334782" opacity="1.000000" stroke="none" 
	d="
M258.337463,137.780548 
	C257.992310,137.292419 257.993103,136.928421 257.995117,136.291824 
	C259.584747,136.864609 261.173187,137.710007 262.810608,138.902176 
	C261.467529,138.800858 260.075500,138.352768 258.337463,137.780548 
z"/>
<path fill="#334782" opacity="1.000000" stroke="none" 
	d="
M214.105453,119.686859 
	C213.893066,119.262703 213.907562,119.015572 213.949554,118.398438 
	C214.946671,118.840927 215.916290,119.653404 216.874542,120.836502 
	C216.019562,120.759369 215.175949,120.311630 214.105453,119.686859 
z"/>
<path fill="#4F5B75" opacity="1.000000" stroke="none" 
	d="
M118.689178,260.113403 
	C118.857582,260.534882 118.611763,260.728516 118.062485,260.896057 
	C116.690681,260.320374 115.552383,259.682037 114.294296,258.725647 
	C115.564629,258.929779 116.954758,259.451996 118.689178,260.113403 
z"/>
<path fill="#48567B" opacity="1.000000" stroke="none" 
	d="
M159.372955,352.966370 
	C159.028381,352.970245 159.002197,352.485901 158.985657,352.243927 
	C159.623001,352.142914 160.276901,352.283875 161.014587,352.671448 
	C160.638077,352.932922 160.177811,352.947693 159.372955,352.966370 
z"/>
<path fill="#243871" opacity="1.000000" stroke="none" 
	d="
M266.732635,143.956848 
	C266.373260,143.770218 266.020752,143.244324 265.625610,142.386093 
	C265.968506,142.575027 266.354004,143.096313 266.732635,143.956848 
z"/>
<path fill="#394C77" opacity="1.000000" stroke="none" 
	d="
M116.693741,137.114441 
	C116.986328,137.064148 116.986031,137.458008 116.979675,137.654907 
	C116.568741,137.983704 116.164154,138.115601 115.435974,138.277069 
	C115.541962,137.925995 115.971558,137.545364 116.693741,137.114441 
z"/>
<path fill="#394C77" opacity="1.000000" stroke="none" 
	d="
M158.008072,123.250137 
	C158.004562,122.998413 158.446716,123.001328 158.667480,123.004547 
	C158.899231,123.181190 158.910248,123.354614 158.806396,123.761848 
	C158.691528,123.995651 158.368500,124.000328 158.208923,124.002136 
	C158.036774,123.836594 158.024185,123.669235 158.008072,123.250137 
z"/>
<path fill="#334782" opacity="1.000000" stroke="none" 
	d="
M217.813873,122.346626 
	C217.633484,122.331017 217.302078,122.009201 216.880447,121.341217 
	C217.081085,121.343506 217.371979,121.691956 217.813873,122.346626 
z"/>
<path fill="#394C77" opacity="1.000000" stroke="none" 
	d="
M111.323669,255.842102 
	C111.538002,255.845810 111.816696,256.117554 112.062447,256.686829 
	C111.815681,256.692932 111.601852,256.401550 111.323669,255.842102 
z"/>
<path fill="#394C77" opacity="1.000000" stroke="none" 
	d="
M115.040726,138.246216 
	C115.067902,138.428253 114.844711,138.748627 114.335190,139.157318 
	C114.296021,138.958618 114.543190,138.671585 115.040726,138.246216 
z"/>
<path fill="#394C77" opacity="1.000000" stroke="none" 
	d="
M114.003494,139.194275 
	C114.025185,139.357254 113.808723,139.672668 113.318489,140.097061 
	C113.284920,139.919617 113.525131,139.633179 114.003494,139.194275 
z"/>
<path fill="#334782" opacity="1.000000" stroke="none" 
	d="
M263.803864,139.929886 
	C263.633820,139.966797 263.297974,139.782837 262.857239,139.324280 
	C263.047607,139.269455 263.342834,139.489227 263.803864,139.929886 
z"/>
<path fill="#334782" opacity="1.000000" stroke="none" 
	d="
M265.699097,142.120850 
	C265.521759,142.135132 265.223907,141.885452 264.842438,141.345856 
	C265.032074,141.322906 265.305359,141.589905 265.699097,142.120850 
z"/>
<path fill="#243871" opacity="1.000000" stroke="none" 
	d="
M266.785950,144.971161 
	C266.785950,144.971161 266.441101,144.773117 266.432129,144.573868 
	C266.815552,144.428314 267.207947,144.482010 267.850616,144.697327 
	C268.100861,144.858932 268.043945,144.938202 267.714478,144.968719 
	C267.185364,144.989883 266.985657,144.980530 266.785950,144.971161 
z"/>
<path fill="#1F2A50" opacity="1.000000" stroke="none" 
	d="
M266.753906,145.440689 
	C266.985657,144.980530 267.185364,144.989883 267.684570,145.007263 
	C267.991180,178.865036 268.011230,212.714798 267.971405,246.564484 
	C267.969147,248.497177 267.477570,250.429260 266.905243,252.647339 
	C266.660278,225.223679 266.732574,197.514343 266.781860,169.804947 
	C266.796021,161.840103 266.743713,153.875137 266.753906,145.440689 
z"/>
<path fill="#253870" opacity="1.000000" stroke="none" 
	d="
M201.970139,189.917542 
	C202.012222,189.599075 202.154465,189.334427 202.977936,188.970642 
	C206.302948,187.865402 209.029846,186.152527 211.793732,186.090591 
	C224.782181,185.799606 237.781982,186.058884 250.775055,185.902039 
	C254.541016,185.856583 256.140656,186.905106 256.102020,190.970200 
	C255.934082,208.628448 255.940048,226.290024 256.099457,243.948441 
	C256.135223,247.912491 254.726456,249.112900 250.861984,249.103668 
	C209.378235,249.004532 167.894012,248.999161 126.410324,249.111618 
	C122.349701,249.122635 120.834137,247.941422 120.878517,243.721008 
	C121.062462,226.229675 121.064545,208.734161 120.878326,191.242889 
	C120.832954,186.981750 122.444519,185.816864 126.449547,185.893387 
	C136.941650,186.093842 147.440170,185.948074 157.936081,185.965485 
	C163.515640,185.974747 169.248825,185.199203 174.148743,188.937714 
	C174.472534,189.018250 174.714706,189.204758 175.063843,190.074249 
	C178.498352,191.421082 181.723099,192.665161 184.996918,192.811493 
	C187.643570,192.929779 190.349319,191.725540 193.028854,191.107986 
	C195.060791,191.036957 197.092712,190.965927 199.756683,191.096085 
	C200.915863,190.837341 201.442993,190.377441 201.970139,189.917542 
z"/>
<path fill="#3D4A6C" opacity="1.000000" stroke="none" 
	d="
M174.095703,188.536652 
	C169.248825,185.199203 163.515640,185.974747 157.936081,185.965485 
	C147.440170,185.948074 136.941650,186.093842 126.449547,185.893387 
	C122.444519,185.816864 120.832954,186.981750 120.878326,191.242889 
	C121.064545,208.734161 121.062462,226.229675 120.878517,243.721008 
	C120.834137,247.941422 122.349701,249.122635 126.410324,249.111618 
	C167.894012,248.999161 209.378235,249.004532 250.861984,249.103668 
	C254.726456,249.112900 256.135223,247.912491 256.099457,243.948441 
	C255.940048,226.290024 255.934082,208.628448 256.102020,190.970200 
	C256.140656,186.905106 254.541016,185.856583 250.775055,185.902039 
	C237.781982,186.058884 224.782181,185.799606 211.793732,186.090591 
	C209.029846,186.152527 206.302948,187.865402 203.185242,188.872559 
	C202.956146,185.185272 204.807297,184.115509 208.566132,184.169113 
	C224.534195,184.396805 240.507355,184.265793 256.880707,184.265793 
	C256.880707,206.500977 256.880707,228.384903 256.880707,250.619141 
	C211.391891,250.619141 165.819061,250.619141 119.920059,250.619141 
	C119.920059,228.779999 119.920059,206.873749 119.920059,184.264954 
	C122.198265,184.264954 124.456810,184.265060 126.715347,184.264954 
	C140.878357,184.264313 155.042603,184.362518 169.203415,184.185562 
	C172.309982,184.146759 173.915909,184.988190 174.095703,188.536652 
z"/>
<path fill="#24325C" opacity="1.000000" stroke="none" 
	d="
M256.975067,148.010056 
	C256.975067,156.761139 256.975067,165.512238 256.975067,174.467285 
	C211.135544,174.467285 165.651474,174.467285 119.702988,174.467285 
	C119.702988,165.772064 119.702988,157.326950 120.084564,148.386337 
	C120.989067,147.680969 121.512001,147.471085 122.034935,147.261200 
	C164.708038,147.224579 207.381149,147.187958 250.838867,147.402405 
	C253.407333,147.772324 255.191208,147.891190 256.975067,148.010056 
M162.500000,149.001221 
	C150.678253,149.001236 138.850388,149.222534 127.037674,148.895966 
	C122.084106,148.759003 120.564232,150.515762 120.944153,155.216843 
	C121.278374,159.352478 121.242340,163.552231 120.953217,167.694565 
	C120.657478,171.931732 122.405510,173.108658 126.448402,173.067627 
	C143.097046,172.898605 159.748413,172.998047 176.398773,172.998077 
	C200.541794,172.998123 224.684830,173.003433 248.827850,172.993591 
	C255.918335,172.990692 255.978668,172.911407 255.992233,165.644226 
	C255.998749,162.147659 255.728012,158.625793 256.058014,155.160629 
	C256.513275,150.380356 254.776154,148.865814 249.914673,148.900131 
	C221.110977,149.103516 192.305130,149.000916 162.500000,149.001221 
z"/>
<path fill="#273767" opacity="1.000000" stroke="none" 
	d="
M207.548035,129.596832 
	C208.104416,132.266266 208.263168,134.683456 208.439255,137.364990 
	C195.057251,137.364990 182.294235,137.364990 169.175140,137.364990 
	C169.175140,134.813431 169.175140,132.285294 169.175140,129.344574 
	C181.957672,129.344574 194.554047,129.344574 207.548035,129.596832 
z"/>
<path fill="#3D4A6C" opacity="1.000000" stroke="none" 
	d="
M192.569855,191.002625 
	C190.349319,191.725540 187.643570,192.929779 184.996918,192.811493 
	C181.723099,192.665161 178.498352,191.421082 175.136368,190.297455 
	C180.717163,190.261505 186.414001,190.579391 192.569855,191.002625 
z"/>
<path fill="#394C77" opacity="1.000000" stroke="none" 
	d="
M156.904236,136.219131 
	C157.402496,135.776413 157.803787,135.551651 158.398468,135.200958 
	C157.972412,135.995163 157.352997,136.915283 156.388336,137.741760 
	C156.297806,137.244415 156.552536,136.840744 156.904236,136.219131 
z"/>
<path fill="#525C7C" opacity="1.000000" stroke="none" 
	d="
M256.824585,147.632416 
	C255.191208,147.891190 253.407333,147.772324 251.303894,147.454407 
	C252.880905,147.255157 254.777481,147.254959 256.824585,147.632416 
z"/>
<path fill="#3D4A6C" opacity="1.000000" stroke="none" 
	d="
M201.697723,189.992874 
	C201.442993,190.377441 200.915863,190.837341 200.191467,191.135513 
	C200.471252,190.671906 200.948288,190.370056 201.697723,189.992874 
z"/>
<path fill="#525C7C" opacity="1.000000" stroke="none" 
	d="
M121.711441,147.157532 
	C121.512001,147.471085 120.989067,147.680969 120.178741,147.923004 
	C120.390221,147.654739 120.889084,147.354309 121.711441,147.157532 
z"/>
<path fill="#283B70" opacity="1.000000" stroke="none" 
	d="
M163.000000,149.001221 
	C192.305130,149.000916 221.110977,149.103516 249.914673,148.900131 
	C254.776154,148.865814 256.513275,150.380356 256.058014,155.160629 
	C255.728012,158.625793 255.998749,162.147659 255.992233,165.644226 
	C255.978668,172.911407 255.918335,172.990692 248.827850,172.993591 
	C224.684830,173.003433 200.541794,172.998123 176.398773,172.998077 
	C159.748413,172.998047 143.097046,172.898605 126.448402,173.067627 
	C122.405510,173.108658 120.657478,171.931732 120.953217,167.694565 
	C121.242340,163.552231 121.278374,159.352478 120.944153,155.216843 
	C120.564232,150.515762 122.084106,148.759003 127.037674,148.895966 
	C138.850388,149.222534 150.678253,149.001236 163.000000,149.001221 
z"/>
</svg>